# xmcd
#
# Track frame offsets:
#	150
#	9474
#	21492
#	35836
#	49028
#	63491
#	75008
#	89849
#	102933
#	116981
#	127969
#	143175
#	155965
#	171165
#	182004
#	195901
#	207034
#	219748
#	229458
#	241294
#	252468
#	262868
#
# Disc length: 3669 seconds
#
# Revision: 1
# Processed by: cddbd v1.5.2PL0 Copyright (c) Steve Scherf et al.
# Submitted via: audiograbber 1.83.01
#
DISCID=3d0e5316
DTITLE=Hoyt Axton - Two To Remember
DYEAR=1900
DGENRE=Country
TTITLE0=You're The Hangnail In My Life
TTITLE1=Little White Moon
TTITLE2=Water For My Horses
TTITLE3=Funeral Of The King
TTITLE4=I Light This Candle
TTITLE5=Never Been To Spain
TTITLE6=You Taught Me How To Cry
TTITLE7=Snowblind Friend
TTITLE8=Pancho And Lefty
TTITLE9=Seven Come
TTITLE10=I Don't Know Why I left You
TTITLE11=Bluebird
TTITLE12=Honky Tonk Music
TTITLE13=The Way Of The World
TTITLE14=The Heart You Break (May Be Your Own)
TTITLE15=Jive Man
TTITLE16=Free Sailin'
TTITLE17=Them Downers
TTITLE18=Left My Gal In The Mountains
TTITLE19=Darrell and Judy
TTITLE20=Endless Road
TTITLE21=Joy To The World (Bonus Track)
EXTD=
EXTT0=
EXTT1=
EXTT2=
EXTT3=
EXTT4=
EXTT5=
EXTT6=
EXTT7=
EXTT8=
EXTT9=
EXTT10=
EXTT11=
EXTT12=
EXTT13=
EXTT14=
EXTT15=
EXTT16=
EXTT17=
EXTT18=
EXTT19=
EXTT20=
EXTT21=
PLAYORDER=
